<svg width="41" height="41" viewBox="0 0 41 41" fill="none" xmlns="http://www.w3.org/2000/svg">
<circle cx="20.5" cy="20.5" r="20.5" fill="black"/>
<path d="M15.7994 23.6369H15.8002C15.8009 23.6369 15.8016 23.6367 15.8023 23.6367H25.3633C25.5987 23.6367 25.8056 23.4806 25.8703 23.2543L27.9797 15.8714C28.0251 15.7123 27.9933 15.5412 27.8937 15.4091C27.794 15.2769 27.6381 15.1992 27.4727 15.1992H14.5832L14.2063 13.5028C14.1526 13.2615 13.9386 13.0898 13.6914 13.0898H10.5273C10.2361 13.0898 10 13.3259 10 13.6172C10 13.9085 10.2361 14.1445 10.5273 14.1445H13.2684C13.3352 14.4451 15.0724 22.2627 15.1724 22.7125C14.6119 22.9561 14.2188 23.5149 14.2188 24.1641C14.2188 25.0364 14.9285 25.7461 15.8008 25.7461H25.3633C25.6546 25.7461 25.8906 25.51 25.8906 25.2187C25.8906 24.9275 25.6546 24.6914 25.3633 24.6914H15.8008C15.5101 24.6914 15.2734 24.4548 15.2734 24.1641C15.2734 23.8737 15.5092 23.6375 15.7994 23.6369ZM26.7735 16.2539L24.9654 22.582H16.2238L14.8175 16.2539H26.7735Z" fill="white"/>
<path d="M15.2734 27.3281C15.2734 28.2004 15.9832 28.9102 16.8555 28.9102C17.7278 28.9102 18.4375 28.2004 18.4375 27.3281C18.4375 26.4558 17.7278 25.7461 16.8555 25.7461C15.9832 25.7461 15.2734 26.4558 15.2734 27.3281ZM16.8555 26.8008C17.1462 26.8008 17.3828 27.0374 17.3828 27.3281C17.3828 27.6189 17.1462 27.8555 16.8555 27.8555C16.5647 27.8555 16.3281 27.6189 16.3281 27.3281C16.3281 27.0374 16.5647 26.8008 16.8555 26.8008Z" fill="white"/>
<path d="M22.7266 27.3281C22.7266 28.2004 23.4363 28.9102 24.3086 28.9102C25.1809 28.9102 25.8906 28.2004 25.8906 27.3281C25.8906 26.4558 25.1809 25.7461 24.3086 25.7461C23.4363 25.7461 22.7266 26.4558 22.7266 27.3281ZM24.3086 26.8008C24.5993 26.8008 24.8359 27.0374 24.8359 27.3281C24.8359 27.6189 24.5993 27.8555 24.3086 27.8555C24.0179 27.8555 23.7812 27.6189 23.7812 27.3281C23.7812 27.0374 24.0179 26.8008 24.3086 26.8008Z" fill="white"/>
</svg>
