<svg width="30" height="30" viewBox="0 0 30 30" fill="none" xmlns="http://www.w3.org/2000/svg">
<circle cx="15" cy="15" r="14.5" stroke="#CACACA"/>
<path d="M18.42 19.104V20H11.546V19.286L15.62 15.296C16.1333 14.792 16.4787 14.358 16.656 13.994C16.8427 13.6207 16.936 13.2473 16.936 12.874C16.936 12.2953 16.7353 11.8473 16.334 11.53C15.942 11.2033 15.3773 11.04 14.64 11.04C13.492 11.04 12.6007 11.404 11.966 12.132L11.252 11.516C11.6347 11.068 12.12 10.7227 12.708 10.48C13.3053 10.2373 13.9773 10.116 14.724 10.116C15.7227 10.116 16.5113 10.354 17.09 10.83C17.678 11.2967 17.972 11.9407 17.972 12.762C17.972 13.266 17.86 13.7513 17.636 14.218C17.412 14.6847 16.9873 15.2213 16.362 15.828L13.03 19.104H18.42Z" fill="black"/>
</svg>
