<svg width="30" height="30" viewBox="0 0 30 30" fill="none" xmlns="http://www.w3.org/2000/svg">
<circle cx="15" cy="15" r="14.5" stroke="#CACACA"/>
<path d="M14.654 20.084C13.9447 20.084 13.2727 19.972 12.638 19.748C12.0127 19.5147 11.5087 19.2067 11.126 18.824L11.616 18.026C11.9333 18.3527 12.358 18.6233 12.89 18.838C13.4313 19.0527 14.0193 19.16 14.654 19.16C15.466 19.16 16.0867 18.9827 16.516 18.628C16.9547 18.2733 17.174 17.7973 17.174 17.2C17.174 16.6027 16.9593 16.1267 16.53 15.772C16.11 15.4173 15.4427 15.24 14.528 15.24H13.828V14.498L16.852 10.704L16.992 11.096H11.532V10.2H17.832V10.914L14.808 14.708L14.318 14.386H14.696C15.872 14.386 16.7493 14.6473 17.328 15.17C17.916 15.6927 18.21 16.3647 18.21 17.186C18.21 17.7367 18.0793 18.2313 17.818 18.67C17.5567 19.1087 17.16 19.454 16.628 19.706C16.1053 19.958 15.4473 20.084 14.654 20.084Z" fill="black"/>
</svg>
